<svg width="5508" height="1122" viewBox="0 0 5508 1122" fill="none" xmlns="http://www.w3.org/2000/svg">
<path opacity="0.67" d="M-41.6623 580.966C128.76 580.83 1099.48 1343.47 2479.24 666.329C3859 -10.8095 4027.65 215.789 4129.7 375.347C4231.74 534.906 5244.04 436.564 5531.19 438.354" stroke="#259DFF" stroke-width="412"/>
<path opacity="0.67" d="M-42.0227 832.788C128.4 832.754 1099.87 1740.34 2478.97 936.18C3858.08 132.024 4026.95 401.599 4129.15 591.407C4231.36 781.214 5243.56 665.034 5530.71 667.376" stroke="#259DFF" stroke-width="412"/>
<path opacity="0.67" d="M-58.2237 1158.92C113.307 1158.95 1091.56 2163.3 2479.22 1274.29C3866.89 385.276 4036.99 683.547 4139.96 893.552C4242.93 1103.56 5261.66 975.438 5550.68 978.143" stroke="#259DFF" stroke-width="412"/>
<path opacity="0.67" d="M-19.8932 1362.11C151.637 1362 1128.84 2163.17 2517.42 1452.21C3906 741.243 4075.8 979.27 4178.55 1146.87C4281.3 1314.48 5300.16 1211.36 5589.17 1213.29" stroke="#259DFF" stroke-width="412"/>
</svg>
