<svg width="5508" height="1296" viewBox="0 0 5508 1296" fill="none" xmlns="http://www.w3.org/2000/svg">
<path opacity="0.67" d="M-42.116 666.643C128.307 666.636 1099.97 1611.69 2478.9 774.696C3857.84 -62.3015 4026.77 218.386 4129.01 416.015C4231.26 613.644 5243.44 492.851 5530.59 495.336" stroke="#259DFF" stroke-width="412"/>
<path opacity="0.67" d="M-42.116 988.643C128.307 988.636 1099.97 1933.69 2478.9 1096.7C3857.84 259.698 4026.77 540.386 4129.01 738.015C4231.26 935.644 5243.44 814.85 5530.59 817.336" stroke="#259DFF" stroke-width="412"/>
<path opacity="0.67" d="M-58.076 1361.64C113.455 1361.63 1091.4 2306.66 2479.33 1469.63C3867.27 632.598 4037.28 913.281 4140.18 1110.91C4243.09 1308.53 5261.85 1187.71 5550.87 1190.19" stroke="#259DFF" stroke-width="412"/>
<path opacity="0.67" d="M-117.739 1683.79C53.7917 1683.77 1031.68 2628.76 2419.66 1791.67C3807.64 954.573 3977.64 1235.25 4080.53 1432.87C4183.42 1630.49 5202.2 1509.63 5491.21 1512.1" stroke="#259DFF" stroke-width="412"/>
</svg>
