<svg width="5508" height="1122" viewBox="0 0 5508 1122" fill="none" xmlns="http://www.w3.org/2000/svg">
<path opacity="0.67" d="M-41.6618 580.966C128.76 580.83 1099.48 1343.47 2479.24 666.329C3859 -10.8097 4027.65 215.789 4129.7 375.347C4231.74 534.905 5244.04 436.564 5531.19 438.354" stroke="#259DFF" stroke-width="412"/>
<path opacity="0.67" d="M-42.116 814.644C128.307 814.636 1099.97 1759.69 2478.9 922.696C3857.84 85.6987 4026.77 366.386 4129.01 564.015C4231.26 761.644 5243.44 640.851 5530.59 643.336" stroke="#259DFF" stroke-width="412"/>
<path opacity="0.67" d="M-58.076 1187.64C113.455 1187.63 1091.4 2132.66 2479.33 1295.63C3867.27 458.598 4037.28 739.281 4140.18 936.908C4243.09 1134.53 5261.85 1013.71 5550.87 1016.19" stroke="#259DFF" stroke-width="412"/>
<path opacity="0.67" d="M-117.739 1509.79C53.7917 1509.77 1031.68 2454.76 2419.66 1617.67C3807.64 780.573 3977.64 1061.25 4080.53 1258.87C4183.42 1456.49 5202.2 1335.63 5491.21 1338.1" stroke="#259DFF" stroke-width="412"/>
</svg>
